<?xml version="1.0" encoding="UTF-8" standalone="no"?>
<svg
   xmlns:dc="http://purl.org/dc/elements/1.1/"
   xmlns:cc="http://creativecommons.org/ns#"
   xmlns:rdf="http://www.w3.org/1999/02/22-rdf-syntax-ns#"
   xmlns:svg="http://www.w3.org/2000/svg"
   xmlns="http://www.w3.org/2000/svg"
   xmlns:sodipodi="http://sodipodi.sourceforge.net/DTD/sodipodi-0.dtd"
   xmlns:inkscape="http://www.inkscape.org/namespaces/inkscape"
   inkscape:version="1.0.1 (3bc2e813f5, 2020-09-07)"
   sodipodi:docname="tcs-logo-final.svg"
   viewBox="0 0 511.99999 512"
   height="512"
   width="512"
   xml:space="preserve"
   id="svg1489"
   version="1.1"><metadata
     id="metadata1495"><rdf:RDF><cc:Work
         rdf:about=""><dc:format>image/svg+xml</dc:format><dc:type
           rdf:resource="http://purl.org/dc/dcmitype/StillImage" /><dc:title></dc:title></cc:Work></rdf:RDF></metadata><defs
     id="defs1493"><clipPath
       id="clipPath1515"
       clipPathUnits="userSpaceOnUse"><path
         id="path1513"
         d="M 0,595.28 H 841.89 V 0 H 0 Z" /></clipPath></defs><sodipodi:namedview
     inkscape:current-layer="g1497"
     inkscape:window-maximized="0"
     inkscape:window-y="0"
     inkscape:window-x="0"
     inkscape:cy="229.71457"
     inkscape:cx="246.36025"
     inkscape:zoom="2.7338875"
     showgrid="false"
     id="namedview1491"
     inkscape:window-height="1041"
     inkscape:window-width="1904"
     inkscape:pageshadow="2"
     inkscape:pageopacity="0"
     guidetolerance="10"
     gridtolerance="10"
     objecttolerance="10"
     borderopacity="1"
     bordercolor="#666666"
     pagecolor="#ffffff"
     inkscape:document-rotation="0" /><g
     transform="matrix(1.3333333,0,0,-1.3333333,0,793.70667)"
     inkscape:label="Background"
     inkscape:groupmode="layer"
     id="g1497"><path
       id="path1499"
       style="fill:#5ed5ff;fill-opacity:1;fill-rule:nonzero;stroke:none;stroke-width:0.546484"
       d="M -1.3278066,208.96044 H 384.08804 V 596.82388 H -1.3278066 Z" /></g><g
     inkscape:groupmode="layer"
     id="layer2"
     inkscape:label="White"><path
       style="fill:#ffffff;stroke:#000000;stroke-width:0.75px;stroke-linecap:butt;stroke-linejoin:miter;stroke-opacity:1"
       d="m 23.592778,416.41384 -1.097338,13.71673 23.044109,-6.03536 7.68137,-2.74334 16.460078,3.84068 6.58403,-14.2654 13.168065,-17.00875 23.044108,-21.3981 7.1327,-28.5308 -12.07073,-13.16807 -18.654748,-6.03536 -25.238787,13.71674 -17.008748,29.07946 -3.292015,5.48669 -35.114833,12.6194 2.743346,18.65476 z"
       id="path56"
       transform="matrix(1.3333333,0,0,-1.3333333,0,793.70667)" /><path
       style="fill:#ffffff;stroke:#000000;stroke-width:1px;stroke-linecap:butt;stroke-linejoin:miter;stroke-opacity:1"
       d="m 350.41676,321.88596 8.04715,25.60457 25.60457,12.4365 25.60456,-9.51027 33.65172,-43.89354 8.04714,-10.24182 44.6251,-17.55742 -8.7787,-32.92016 -11.70495,-5.85247 -0.73156,-21.21521 -35.84639,10.97339 -24.873,-0.73156 -8.04715,26.33612 -41.69887,30.72548 z"
       id="path66" /><path
       style="fill:#ffffff;stroke:#000000;stroke-width:1px;stroke-linecap:butt;stroke-linejoin:miter;stroke-opacity:1"
       d="m 68.034987,229.34375 -47.551335,-12.43651 5.852472,-27.06768 0.731559,-74.61902 41.698863,-42.430419 43.161984,-22.678329 46.08821,1.463118 30.72548,8.047149 22.67833,16.825857 18.28898,10.973385 h 54.13536 l 23.40989,-23.409888 29.26236,-9.510267 32.1886,-4.389354 h 32.18859 l 25.60457,13.899621 32.18859,24.873006 21.21522,30.725481 5.85247,49.01445 -6.58403,24.14145 5.12091,26.33612 -16.82586,0.73156 -34.38327,10.97339 -20.48365,-7.31559 -7.31559,-10.24183 -29.99392,2.19468 -3.6578,29.99392 -9.51026,13.16806 v 32.92015 l -16.82586,28.5308 -5.12091,27.79925 -17.55742,29.26236 -0.73156,24.873 -7.31559,26.33613 -23.40989,28.5308 -29.99392,14.63118 -32.92015,-5.12092 -26.33613,-24.873 -17.55741,-36.57795 -1.46312,-32.1886 -23.40989,-51.20913 -16.0943,-37.30951 -2.19467,-30.72548 -8.77871,-26.33612 -2.92624,-13.89962 -29.26236,-0.73156 -14.631177,14.63118 -8.461907,0.90664 z"
       id="path68" /></g><g
     inkscape:groupmode="layer"
     id="layer1"
     inkscape:label="Outline"><g
       transform="matrix(0.05392929,0,0,-0.05392929,1.5755612,507.24764)"
       fill="#000000"
       stroke="none"
       id="g150"><path
         d="m 2108,8595 c -3,-3 -59,-17 -124,-31 -149,-31 -248,-64 -347,-116 -100,-52 -357,-221 -462,-303 -89,-70 -253,-235 -334,-336 -30,-39 -81,-86 -122,-114 C 566,7591 469,7442 401,7207 288,6821 266,6560 310,6130 c 35,-344 36,-380 12,-442 -65,-164 -79,-331 -34,-396 26,-36 88,-72 124,-72 22,0 25,-7 37,-82 12,-82 12,-83 -10,-98 -139,-91 -225,-217 -335,-490 -31,-79 -38,-110 -42,-186 -5,-105 9,-143 75,-205 55,-53 96,-70 315,-133 214,-61 354,-108 461,-154 l 68,-29 68,-124 c 179,-329 338,-546 561,-770 167,-168 238,-221 365,-271 70,-27 95,-32 200,-36 110,-4 126,-2 200,23 107,35 276,124 361,189 62,47 110,99 170,181 l 20,29 22,-60 c 12,-32 94,-180 182,-329 l 161,-269 -7,-171 c -8,-209 2,-281 60,-457 153,-465 376,-806 645,-987 439,-293 929,-294 1366,-3 273,182 496,516 649,975 62,186 70,245 63,462 l -6,180 164,276 c 92,155 172,301 182,332 l 17,56 25,-37 c 82,-123 180,-203 356,-292 160,-81 224,-100 344,-100 215,0 368,77 586,295 218,219 415,495 597,835 31,58 41,68 95,95 77,39 291,111 502,170 187,51 233,71 285,121 58,56 66,82 69,202 1,101 0,112 -31,187 -116,282 -200,403 -341,495 -25,17 -25,19 4,156 3,15 15,23 41,27 44,7 99,48 120,90 33,63 10,244 -48,380 -20,47 -21,55 -10,185 7,76 19,205 28,287 22,213 22,471 0,620 -21,135 -73,359 -113,480 -63,195 -173,349 -313,441 -46,31 -73,58 -161,164 -131,159 -261,271 -497,427 -258,171 -374,221 -645,279 -145,30 -215,29 -292,-5 -61,-27 -93,-26 -196,4 -80,24 -91,25 -259,19 -194,-6 -259,-19 -370,-68 -41,-19 -96,-41 -121,-50 -25,-9 -60,-32 -79,-51 l -33,-34 -81,6 c -103,7 -162,-14 -261,-91 -162,-127 -161,-125 -216,-277 -6,-15 -27,-34 -52,-46 -23,-11 -67,-41 -98,-66 -55,-45 -55,-45 -106,-36 -27,5 -146,15 -264,22 -174,11 -254,11 -427,0 -118,-7 -236,-17 -264,-22 l -51,-9 -61,49 c -33,28 -78,57 -98,67 -31,14 -40,26 -54,67 -32,96 -64,142 -137,197 -115,87 -178,127 -216,138 -45,12 -132,13 -164,1 -21,-8 -30,-4 -63,30 -21,21 -58,46 -83,55 -26,9 -80,32 -122,50 -113,50 -176,62 -368,68 -168,6 -178,5 -264,-20 -98,-29 -130,-28 -217,5 -51,19 -178,29 -192,16 z m 34,-215 c -63,-39 -196,-102 -283,-135 -175,-67 -226,-103 -295,-207 -54,-81 -107,-208 -102,-246 2,-22 8,-27 32,-27 26,0 30,5 45,55 39,123 115,241 186,288 25,16 105,53 178,82 72,29 161,70 197,91 108,64 182,90 221,79 56,-16 122,-11 213,15 47,14 98,25 113,25 26,0 26,0 7,-22 -51,-57 -163,-116 -324,-168 -178,-59 -273,-108 -382,-197 -106,-87 -192,-209 -167,-239 19,-24 49,-16 67,17 50,92 150,186 277,261 57,34 94,48 325,130 103,36 211,102 275,167 l 39,41 91,-1 c 49,-1 101,-4 114,-8 l 24,-6 -29,-13 c -60,-27 -108,-69 -199,-173 -103,-117 -103,-118 -250,-144 -65,-12 -104,-26 -145,-51 -30,-19 -59,-34 -63,-34 -16,0 -122,-73 -150,-103 -59,-63 -117,-148 -117,-172 0,-59 49,-35 109,54 51,75 88,105 214,174 83,45 118,58 190,70 130,23 167,45 272,165 90,103 168,164 226,177 52,12 128,-22 185,-81 l 51,-53 -58,-36 c -32,-20 -96,-64 -141,-97 -130,-97 -134,-98 -255,-107 -129,-10 -168,-26 -271,-110 -118,-96 -151,-129 -182,-180 -33,-54 -38,-86 -14,-95 28,-11 34,-7 69,48 35,55 152,165 237,224 52,36 119,52 215,52 75,0 121,20 228,101 39,29 102,72 140,97 39,25 86,57 105,72 20,15 59,32 90,38 l 55,11 65,-44 c 85,-57 150,-113 150,-129 0,-9 -21,-15 -59,-19 -89,-10 -165,-42 -203,-86 -34,-40 -144,-124 -234,-179 -41,-26 -68,-33 -145,-42 -133,-15 -159,-20 -204,-43 -114,-56 -269,-198 -263,-240 2,-14 11,-23 26,-25 16,-3 35,11 74,54 66,71 177,150 239,168 26,8 85,18 131,22 46,4 101,13 122,21 60,21 234,140 298,205 61,60 87,72 189,84 l 56,6 12,-33 c 6,-18 24,-47 39,-63 17,-18 23,-30 15,-33 -6,-2 -48,-31 -93,-63 -88,-64 -136,-84 -413,-179 -197,-68 -253,-94 -371,-173 -94,-62 -116,-90 -123,-151 -9,-78 30,-74 71,7 22,43 37,59 79,81 29,16 66,39 83,51 49,38 131,70 356,140 222,68 236,75 398,194 30,22 71,43 90,46 30,5 41,1 75,-29 l 40,-35 -50,-54 c -27,-30 -69,-78 -93,-106 -67,-81 -98,-99 -213,-127 -141,-35 -259,-95 -399,-204 -147,-115 -215,-155 -298,-176 -145,-37 -170,-45 -195,-66 -33,-26 -86,-134 -148,-303 -26,-72 -52,-131 -58,-130 -6,1 -17,2 -25,3 -10,1 -7,21 17,89 29,82 31,96 32,237 1,148 1,152 40,264 38,110 39,114 20,127 -37,27 -44,18 -91,-111 -39,-109 -39,-112 -40,-260 -1,-154 -11,-211 -52,-303 -24,-54 -79,-93 -110,-79 -13,6 -21,15 -18,21 12,30 47,206 65,327 25,160 26,268 6,364 -17,80 -19,142 -5,200 10,45 -2,68 -34,63 -45,-6 -59,-141 -30,-278 26,-121 9,-318 -47,-562 -12,-49 -24,-88 -29,-88 -4,0 -24,7 -44,15 l -36,15 v 93 c 0,50 6,126 14,167 39,203 28,319 -46,483 -31,70 -42,108 -47,166 l -6,76 h -30 -30 l 1,-85 c 0,-77 4,-93 41,-175 23,-49 47,-110 54,-135 17,-63 15,-209 -5,-312 -9,-48 -18,-127 -19,-176 l -2,-88 -28,4 c -51,8 -68,89 -71,332 -3,217 -12,255 -102,405 -37,62 -58,110 -65,151 -7,32 -13,65 -15,72 -2,6 -18,12 -35,12 h -32 l 5,-64 c 6,-67 22,-106 103,-251 63,-113 80,-195 72,-352 -5,-93 -3,-142 9,-201 21,-103 22,-116 4,-119 -10,-2 -34,28 -67,85 -69,118 -88,164 -103,252 -23,140 -55,221 -134,338 -45,68 -84,139 -101,188 -15,43 -34,85 -40,93 -20,20 -55,5 -55,-25 0,-48 64,-189 128,-283 78,-114 96,-158 128,-311 25,-119 69,-224 138,-330 l 35,-55 -20,-20 -21,-20 -97,102 c -114,119 -140,163 -175,296 -35,134 -82,230 -149,306 -37,43 -71,97 -98,158 -43,94 -66,116 -94,93 -8,-7 -15,-17 -15,-22 0,-31 104,-221 149,-271 68,-78 94,-130 140,-292 44,-153 65,-187 208,-336 78,-80 97,-109 73,-109 -16,0 -143,114 -194,173 -30,36 -87,134 -162,282 -63,126 -128,246 -144,268 -16,22 -58,61 -94,88 -35,27 -80,67 -99,90 -40,47 -79,52 -85,11 -3,-18 10,-37 51,-75 30,-29 86,-81 123,-117 66,-62 75,-76 189,-304 117,-234 121,-241 205,-326 47,-48 105,-104 130,-124 l 45,-37 -45,22 c -115,56 -220,146 -265,226 -147,260 -261,404 -400,503 -27,19 -67,59 -89,88 -32,43 -44,52 -65,50 -17,-2 -27,-10 -29,-23 -4,-31 80,-134 150,-182 34,-24 73,-53 86,-66 57,-52 213,-274 272,-385 42,-79 129,-161 245,-229 49,-29 86,-53 83,-53 -23,0 -256,89 -328,125 -144,72 -184,118 -267,307 -24,57 -57,116 -71,131 -15,16 -65,49 -112,75 -47,25 -104,58 -128,74 -51,35 -85,31 -80,-9 2,-20 25,-38 123,-95 66,-38 130,-78 142,-90 12,-11 32,-46 44,-77 39,-98 100,-209 141,-256 22,-25 67,-61 101,-81 78,-46 241,-115 340,-144 71,-21 100,-40 61,-40 -60,0 -432,157 -520,219 -28,20 -70,71 -127,158 -47,71 -104,146 -128,166 -49,42 -125,74 -189,79 -44,3 -45,2 -45,-26 0,-27 4,-30 51,-41 107,-24 165,-75 260,-230 74,-121 122,-164 255,-227 63,-30 151,-70 197,-88 45,-19 78,-38 73,-43 -21,-21 -107,-9 -193,28 -132,56 -203,105 -318,224 -109,113 -161,147 -255,170 -27,7 -58,19 -67,28 -25,23 -63,13 -63,-17 0,-31 48,-65 105,-74 70,-11 117,-43 218,-148 108,-111 173,-160 293,-218 l 81,-39 -37,-15 c -21,-9 -44,-16 -52,-16 -22,0 -162,84 -329,196 -161,108 -219,134 -295,134 -51,0 -64,-9 -54,-39 4,-13 19,-20 55,-24 68,-8 141,-45 267,-136 59,-43 139,-95 178,-116 l 69,-39 -57,-14 -58,-14 -122,42 c -67,24 -160,60 -206,82 -46,21 -92,38 -102,38 -25,0 -33,59 -33,255 0,107 6,197 18,270 17,109 18,111 44,110 22,0 28,5 30,26 2,14 -4,31 -12,39 -20,16 -20,39 2,120 15,58 20,65 42,65 25,0 25,1 22,75 -2,68 1,80 30,134 36,66 53,78 61,46 4,-17 12,-21 34,-18 27,3 28,5 28,58 1,69 13,91 73,131 26,18 59,43 74,57 l 28,26 -3,-95 -2,-94 h 30 29 l 14,120 c 16,149 42,211 118,286 47,46 54,50 45,26 -6,-16 -11,-44 -11,-64 0,-20 -5,-64 -12,-99 -9,-50 -9,-66 2,-79 37,-45 68,5 79,126 4,55 15,110 26,132 27,57 268,265 410,354 85,54 162,83 304,115 75,16 138,32 140,34 2,2 11,4 20,4 9,0 1,-9 -17,-20 z m 4675,-6 c 74,-21 100,-25 158,-19 39,3 81,6 95,7 14,0 84,-30 155,-67 72,-37 178,-87 237,-110 142,-57 191,-86 238,-147 46,-58 106,-176 118,-234 7,-35 11,-39 37,-39 29,0 30,1 29,45 -3,81 -101,262 -176,325 -36,31 -154,89 -263,129 -83,31 -284,140 -240,131 249,-55 297,-69 371,-105 105,-51 214,-130 359,-259 137,-121 149,-143 163,-283 9,-96 21,-128 48,-128 22,0 47,46 36,67 -5,10 -13,52 -17,93 -3,41 -9,84 -12,95 -10,38 99,-78 122,-130 19,-43 38,-145 48,-259 2,-33 26,-52 52,-42 16,6 17,16 12,98 l -6,91 27,-25 c 15,-14 46,-38 70,-52 60,-37 83,-79 80,-141 -3,-48 -2,-50 24,-53 20,-2 30,3 40,22 l 13,26 35,-58 c 33,-53 35,-63 35,-142 v -85 h 27 c 25,1 28,-4 46,-77 20,-78 20,-78 0,-103 -28,-35 -21,-70 14,-70 25,1 27,-3 37,-60 26,-153 33,-256 27,-398 -4,-81 -10,-155 -13,-163 -3,-8 -14,-14 -24,-14 -11,0 -45,-13 -77,-29 -31,-16 -121,-52 -200,-81 l -143,-52 -62,14 -62,13 75,42 c 41,23 120,74 175,114 115,83 204,128 272,137 43,6 48,10 48,32 0,24 -2,25 -65,25 -80,0 -142,-30 -305,-144 -60,-43 -152,-101 -203,-130 -93,-53 -94,-53 -138,-41 -24,7 -44,15 -44,19 0,3 48,31 107,60 98,50 120,67 238,182 137,133 167,154 234,165 58,9 106,43 106,74 0,30 -37,40 -63,17 -9,-9 -43,-22 -75,-30 -86,-23 -134,-56 -258,-180 -121,-121 -183,-163 -334,-224 -78,-32 -97,-34 -159,-16 -12,3 13,19 80,48 189,81 278,126 322,162 25,21 79,89 128,164 101,154 155,199 253,215 45,7 64,24 55,47 -8,23 -25,26 -79,16 -117,-22 -197,-88 -285,-234 -85,-142 -128,-177 -316,-262 -166,-74 -252,-106 -318,-119 -70,-13 -30,14 62,42 116,35 269,103 348,155 78,51 137,134 199,282 48,116 52,119 225,221 107,62 127,86 91,105 -17,9 -40,0 -143,-58 -154,-87 -181,-109 -210,-174 -59,-134 -120,-246 -153,-280 -45,-46 -242,-144 -375,-187 -52,-16 -97,-30 -99,-30 -3,0 30,20 73,45 84,47 170,114 209,161 13,16 40,61 61,99 97,179 240,357 338,422 46,31 86,67 115,107 49,67 53,99 12,104 -21,2 -32,-7 -63,-52 -24,-35 -63,-72 -111,-105 -40,-28 -94,-74 -120,-103 -59,-65 -174,-231 -222,-318 -20,-36 -47,-82 -61,-103 -33,-49 -128,-124 -217,-172 l -70,-38 40,34 c 77,64 177,164 210,209 18,25 85,150 150,278 108,215 122,237 173,280 94,80 163,146 173,164 27,51 -43,68 -76,17 -11,-16 -52,-54 -91,-84 -39,-30 -85,-69 -101,-89 -17,-19 -86,-144 -154,-278 l -122,-243 -109,-107 c -100,-100 -138,-126 -138,-96 0,6 42,54 94,108 130,134 160,183 197,321 39,146 74,218 144,299 57,65 149,238 143,268 -2,8 -11,20 -20,26 -25,15 -50,-13 -83,-94 -31,-73 -51,-105 -109,-171 -61,-68 -90,-129 -137,-284 -48,-161 -67,-192 -190,-320 -86,-88 -88,-89 -107,-71 -21,18 -21,18 12,69 77,120 118,218 142,341 28,138 58,210 138,324 35,49 70,116 91,174 19,51 35,96 35,100 0,12 -38,28 -53,22 -8,-3 -29,-44 -47,-91 -18,-48 -58,-123 -88,-167 -82,-120 -118,-204 -146,-343 -27,-130 -31,-142 -109,-275 -47,-81 -68,-101 -81,-80 -3,5 2,33 11,63 11,40 16,104 18,244 2,222 13,269 93,402 55,89 79,155 84,223 3,44 2,45 -29,48 -30,3 -32,1 -38,-35 -14,-79 -26,-110 -75,-193 -89,-151 -116,-260 -104,-425 6,-89 -5,-200 -28,-277 -9,-32 -16,-38 -38,-38 -27,0 -27,0 -33,93 -4,50 -14,128 -23,172 -8,44 -16,121 -16,170 -1,94 18,162 85,320 18,42 26,83 29,135 3,72 2,75 -21,78 -33,5 -38,-4 -50,-89 -7,-48 -23,-102 -45,-150 -20,-41 -43,-103 -52,-139 -21,-81 -21,-226 0,-333 8,-42 18,-122 22,-177 l 7,-99 -27,-11 c -74,-28 -70,-31 -95,77 -56,248 -71,419 -47,544 16,86 19,198 7,254 -5,25 -11,30 -36,30 h -30 l 3,-95 c 3,-61 -2,-123 -12,-172 -20,-96 -20,-175 -1,-303 9,-55 20,-133 26,-173 6,-40 19,-105 29,-144 17,-67 18,-73 2,-85 -24,-17 -24,-17 -69,25 -33,30 -46,53 -67,120 -23,73 -26,100 -26,223 0,138 -1,143 -41,264 -23,68 -48,126 -56,129 -16,7 -53,-10 -53,-24 0,-5 16,-53 36,-107 36,-96 37,-102 39,-258 3,-149 5,-166 33,-245 17,-46 30,-85 29,-86 -1,-1 -12,-4 -24,-8 -18,-6 -23,-1 -37,36 -73,202 -92,251 -118,303 -17,33 -38,68 -47,79 -26,29 -80,52 -166,70 -114,24 -162,49 -330,176 -172,130 -263,177 -414,214 -114,28 -148,48 -208,123 -21,26 -63,74 -93,106 l -55,59 40,34 c 22,18 48,34 58,34 32,0 81,-26 157,-84 104,-80 127,-90 360,-163 213,-67 296,-103 416,-178 56,-35 75,-54 87,-83 17,-43 51,-77 66,-67 18,10 13,73 -9,115 -13,26 -36,48 -67,66 -27,15 -69,42 -94,60 -58,42 -103,61 -319,136 -264,91 -315,114 -414,181 -50,34 -92,62 -94,63 -2,1 8,14 22,29 14,15 31,43 38,61 14,40 26,41 132,19 63,-13 74,-20 120,-68 49,-51 229,-178 291,-206 17,-7 83,-19 149,-27 96,-11 129,-20 175,-44 62,-33 175,-127 206,-171 14,-20 29,-29 48,-29 23,0 27,4 27,29 0,58 -194,220 -305,255 -27,9 -93,20 -146,25 -60,6 -111,17 -135,29 -59,30 -193,128 -249,182 -27,26 -63,55 -80,63 -35,17 -123,37 -165,37 -17,0 -30,5 -30,11 0,23 172,163 210,170 8,2 37,-1 63,-5 48,-7 129,-57 342,-211 119,-85 136,-92 251,-97 77,-4 112,-10 145,-26 64,-32 240,-187 270,-238 34,-59 43,-67 68,-59 72,23 -59,191 -252,324 -66,45 -90,52 -212,62 l -110,9 -70,50 c -38,27 -115,80 -170,116 l -100,66 50,53 c 39,41 63,57 107,70 54,17 59,17 103,1 65,-25 130,-80 216,-182 88,-104 130,-129 255,-150 152,-26 324,-129 402,-242 65,-93 112,-116 112,-56 0,30 -102,168 -152,206 -18,14 -79,51 -134,81 -84,47 -116,58 -206,76 -59,11 -118,27 -132,36 -14,10 -57,54 -95,98 -91,108 -116,131 -179,165 l -53,29 32,7 c 17,3 67,6 111,6 h 80 l 61,-56 c 92,-83 155,-117 337,-179 91,-31 190,-70 220,-87 131,-73 242,-172 297,-265 18,-31 31,-43 48,-43 81,0 -5,145 -158,266 -106,83 -203,133 -349,179 -140,43 -256,100 -318,154 -44,40 -45,40 -18,41 15,0 67,-12 115,-26 z M 4905,7710 c 96,-6 192,-18 240,-30 88,-22 87,-21 262,-217 84,-94 119,-114 253,-142 128,-28 209,-70 374,-195 170,-128 229,-161 349,-190 52,-13 103,-28 114,-35 24,-12 62,-99 129,-293 49,-141 67,-182 92,-210 23,-27 64,-22 97,12 16,17 36,30 45,30 9,0 38,-23 65,-51 75,-76 135,-107 311,-158 101,-30 377,-93 586,-135 98,-20 206,-47 242,-60 35,-13 113,-34 172,-46 151,-30 195,-52 293,-142 94,-88 188,-153 244,-170 24,-7 43,-21 52,-37 12,-24 65,-206 65,-223 0,-5 -21,-8 -47,-8 -59,0 -219,-26 -293,-47 -30,-8 -113,-39 -185,-68 -167,-68 -276,-102 -354,-111 l -62,-7 -162,161 c -89,89 -159,164 -156,167 13,12 239,64 333,75 161,21 306,-3 380,-61 29,-23 54,-22 69,3 14,22 -4,43 -63,73 -90,45 -163,59 -330,59 -167,0 -258,-11 -415,-51 -84,-22 -135,-27 -315,-34 -247,-9 -395,-29 -421,-56 -23,-23 -55,-203 -69,-390 -6,-75 -13,-148 -17,-162 -10,-45 -44,-105 -84,-148 -44,-48 -74,-103 -83,-156 -4,-20 -11,-149 -16,-285 -12,-344 -31,-412 -189,-680 -100,-170 -139,-278 -175,-487 -9,-49 -20,-105 -26,-124 -11,-38 -289,-511 -301,-511 -11,0 -22,145 -16,209 4,31 20,112 36,181 62,260 62,275 -18,700 -27,146 -57,328 -66,405 -9,77 -38,298 -65,490 -77,555 -79,519 29,625 89,86 120,152 176,370 53,204 74,252 159,358 116,143 211,212 293,212 53,0 101,-17 114,-41 12,-23 42,-25 59,-4 10,12 10,21 1,41 -29,63 -197,87 -296,40 -61,-28 -147,-105 -224,-200 -98,-123 -112,-153 -172,-381 -53,-200 -89,-274 -172,-356 -54,-54 -68,-74 -82,-124 -21,-71 -20,-81 40,-515 25,-179 56,-413 70,-520 13,-107 43,-292 65,-410 77,-403 77,-410 18,-669 -36,-162 -41,-280 -18,-501 8,-80 15,-226 15,-325 v -180 l -55,-159 c -91,-269 -241,-548 -377,-703 -152,-174 -431,-318 -662,-342 -274,-29 -585,92 -803,312 -157,159 -326,472 -430,797 -32,102 -33,109 -33,275 1,94 7,233 15,310 24,231 19,365 -19,530 -47,199 -50,277 -17,455 15,80 41,216 57,304 16,87 36,217 44,290 9,72 39,293 67,491 57,405 65,538 34,595 -10,19 -49,67 -85,105 -80,84 -104,135 -161,354 -23,84 -54,181 -69,215 -54,119 -226,306 -323,351 -102,48 -270,26 -299,-39 -9,-20 -9,-29 1,-41 17,-21 47,-19 59,4 23,42 127,54 199,21 86,-39 251,-223 303,-336 16,-34 44,-125 64,-203 59,-236 86,-294 180,-383 71,-67 90,-115 82,-206 -4,-38 -29,-230 -56,-428 -28,-197 -57,-417 -66,-489 -8,-71 -39,-254 -68,-405 -47,-248 -52,-288 -52,-410 1,-119 5,-151 34,-270 36,-143 49,-287 34,-370 l -9,-45 -146,246 c -80,135 -151,264 -157,286 -6,23 -20,91 -31,151 -36,199 -72,293 -194,499 -135,230 -153,302 -166,653 -11,302 -17,330 -92,416 -71,82 -89,127 -100,258 -12,146 -46,386 -59,424 -6,17 -18,33 -27,37 -45,18 -218,37 -417,45 -170,7 -237,13 -295,29 -148,41 -250,54 -415,55 -178,0 -261,-14 -347,-61 -63,-34 -72,-46 -58,-72 15,-28 30,-26 87,9 123,76 329,76 613,-1 44,-11 80,-24 80,-28 0,-4 -72,-78 -160,-165 l -159,-159 -63,7 c -73,9 -216,53 -331,103 -45,19 -113,46 -152,60 -80,27 -274,63 -346,63 -27,0 -49,1 -49,3 0,1 11,44 25,96 36,133 48,156 94,169 57,18 152,83 238,165 43,41 98,84 122,96 23,13 102,35 175,51 72,15 156,38 186,50 30,12 102,31 160,42 165,31 539,116 657,149 153,44 241,88 305,154 29,30 60,55 69,55 8,0 28,-13 44,-30 18,-19 39,-30 55,-30 47,0 68,36 141,243 67,190 105,272 134,285 13,6 52,16 87,22 91,17 209,76 323,164 217,166 269,195 415,227 156,33 175,47 318,212 47,55 99,107 116,118 91,55 427,81 781,59 z M 601,6141 c 46,-22 121,-52 166,-68 46,-15 83,-30 83,-33 0,-3 -13,-13 -29,-23 -29,-17 -32,-17 -164,29 l -135,46 -4,44 c -2,24 -3,44 -2,44 1,0 39,-18 85,-39 z m 8235,17 c -3,-13 -6,-33 -6,-44 0,-18 -19,-28 -134,-68 -133,-46 -134,-46 -165,-29 -17,10 -31,20 -31,23 0,3 44,20 98,39 53,18 126,49 162,67 78,40 84,41 76,12 z m -6586,-797 65,-6 7,-40 c 4,-22 14,-119 23,-215 8,-96 20,-193 26,-215 18,-67 58,-138 106,-187 56,-57 62,-84 63,-271 v -137 l -107,90 c -60,50 -167,133 -238,185 l -130,94 -83,183 c -104,228 -116,271 -110,408 2,58 8,112 12,119 7,10 39,11 155,6 80,-4 175,-10 211,-14 z m 5220,-7 c 13,-33 12,-216 0,-271 -5,-23 -49,-128 -96,-233 l -86,-190 -107,-77 c -115,-83 -202,-151 -296,-231 -33,-29 -63,-52 -67,-52 -10,0 -10,179 -1,273 6,64 9,71 59,128 86,95 108,157 124,338 18,202 32,300 45,311 12,10 204,25 348,29 64,1 68,0 77,-25 z M 775,5240 c 44,-15 143,-51 220,-81 l 140,-54 -45,-5 c -34,-4 -47,-10 -55,-28 -6,-14 -15,-20 -25,-16 -8,3 -54,8 -101,11 -83,6 -86,6 -81,29 3,18 -2,26 -23,34 -14,5 -36,10 -48,10 -12,0 -38,5 -58,10 -34,9 -36,13 -45,70 l -10,59 26,-6 c 14,-3 61,-18 105,-33 z m 7932,26 c -3,-7 -9,-34 -12,-60 -8,-51 -4,-48 -114,-70 -51,-10 -56,-13 -56,-37 1,-26 -1,-26 -85,-32 -47,-3 -92,-8 -100,-11 -10,-4 -19,2 -25,16 -8,18 -21,24 -54,28 -45,5 -44,5 110,64 148,57 315,115 333,116 4,0 6,-6 3,-14 z M 1665,5096 c 0,-27 -5,-30 -146,-86 l -146,-57 -49,20 c -27,10 -87,29 -134,42 -47,13 -74,24 -60,25 95,4 349,43 415,63 102,32 120,31 120,-7 z m 6154,4 c 86,-23 312,-57 409,-61 9,0 -26,-13 -78,-28 -52,-16 -113,-35 -135,-43 -39,-15 -41,-14 -184,43 -79,32 -146,60 -148,63 -7,7 9,56 19,56 6,0 58,-13 117,-30 z M 1698,4970 c 11,-29 10,-30 -52,-65 -35,-19 -67,-35 -72,-35 -5,0 -32,10 -62,22 l -52,22 102,42 c 57,23 108,43 115,43 6,1 16,-12 21,-29 z m 6085,-12 109,-43 -48,-22 c -27,-12 -55,-22 -62,-22 -8,-1 -42,15 -77,34 -62,35 -63,36 -52,65 6,17 13,30 16,30 2,0 54,-19 114,-42 z M 980,4940 c 25,-6 55,-12 67,-15 12,-3 24,-14 28,-25 8,-27 42,-35 64,-16 14,13 24,14 48,6 25,-9 29,-15 25,-39 -3,-20 1,-30 13,-35 25,-9 55,2 55,21 0,22 50,9 73,-19 21,-25 16,-59 -13,-88 -23,-23 -24,-29 -10,-64 22,-58 77,-13 101,81 l 11,42 34,-16 c 52,-25 70,-98 37,-153 -14,-24 -14,-31 -4,-44 34,-41 91,13 91,87 0,20 2,37 5,37 22,0 56,-29 70,-60 15,-33 15,-44 5,-77 -7,-21 -19,-46 -27,-55 -23,-26 -12,-53 23,-56 29,-3 34,1 52,40 11,24 24,60 27,80 7,37 7,37 35,23 70,-36 72,-58 19,-192 -34,-87 -35,-89 -10,-103 35,-18 50,0 83,103 18,56 33,103 34,105 1,2 25,-12 53,-30 43,-29 49,-36 44,-58 -11,-47 -44,-114 -84,-172 -46,-68 -48,-85 -12,-94 22,-6 31,-2 50,22 33,40 77,120 98,176 l 17,47 62,-46 c 33,-26 62,-48 64,-49 6,-4 -46,-98 -78,-142 -17,-24 -60,-77 -96,-117 -68,-79 -78,-109 -42,-121 19,-6 32,3 76,52 71,78 157,192 178,238 10,20 20,36 23,36 3,0 33,-25 66,-54 l 60,-55 -29,-55 c -34,-66 -166,-209 -265,-286 -73,-57 -85,-82 -50,-100 17,-10 28,-7 62,17 72,49 256,234 299,298 l 40,62 32,-36 c 62,-70 96,-119 96,-137 0,-34 -57,-120 -111,-168 -59,-53 -190,-152 -256,-194 -46,-29 -55,-55 -25,-71 24,-13 48,0 172,89 122,87 203,160 244,222 l 33,48 28,-59 28,-59 -27,-47 c -15,-25 -67,-86 -114,-135 -72,-73 -100,-94 -164,-124 -100,-45 -148,-81 -148,-112 0,-38 35,-40 80,-4 23,18 64,41 93,52 28,11 72,35 97,53 47,35 147,136 192,195 l 27,34 9,-24 c 12,-33 -24,-106 -108,-219 -94,-127 -135,-163 -261,-228 -117,-60 -137,-81 -96,-107 14,-9 38,0 130,46 92,47 125,70 184,130 39,40 96,108 126,150 30,42 57,74 61,71 3,-4 6,-26 6,-51 0,-49 -19,-77 -124,-192 -133,-144 -220,-203 -316,-213 -31,-4 -77,-14 -103,-23 -43,-14 -48,-19 -45,-43 3,-22 7,-26 33,-24 38,2 181,32 218,46 56,20 147,87 227,167 61,61 77,73 64,48 -48,-94 -141,-171 -305,-253 -178,-89 -260,-94 -407,-25 -214,100 -472,391 -720,813 -28,48 -48,87 -44,87 9,0 288,-189 378,-256 150,-113 398,-403 421,-493 4,-16 1,-28 -11,-36 -23,-18 -20,-35 7,-35 67,0 82,94 29,180 -36,57 -36,50 12,115 14,19 -1,45 -26,45 -12,0 -33,-10 -46,-22 l -24,-23 -24,30 c -13,17 -24,35 -24,40 1,15 42,61 68,74 35,19 26,55 -15,59 -26,3 -39,-4 -71,-37 -34,-35 -41,-39 -52,-26 -16,19 -7,81 15,105 9,10 30,24 46,31 24,9 29,17 27,38 -2,19 -9,27 -28,28 -33,4 -101,-44 -121,-85 l -17,-33 -21,27 c -12,15 -21,33 -21,40 0,30 43,125 61,135 28,14 21,53 -9,57 -13,2 -34,-4 -47,-12 -23,-15 -65,-94 -65,-122 0,-20 -14,-17 -35,6 -14,15 -17,32 -13,84 3,55 9,71 37,106 38,47 37,74 -1,78 -21,3 -33,-6 -62,-44 -32,-42 -40,-63 -48,-131 -3,-22 -3,-22 -28,-3 -24,18 -24,20 -13,86 7,38 26,95 42,128 17,32 31,67 31,77 0,21 -36,35 -54,20 -24,-20 -66,-108 -80,-170 -8,-35 -17,-65 -19,-68 -13,-13 -47,21 -53,53 -6,34 1,61 50,189 20,53 20,91 0,99 -26,10 -54,-3 -54,-25 0,-11 -13,-50 -28,-87 -16,-37 -32,-84 -36,-104 -8,-43 -12,-45 -45,-19 -24,18 -24,21 -13,71 7,28 31,92 54,141 37,81 40,91 26,106 -28,28 -53,7 -91,-75 -19,-42 -43,-101 -53,-129 -10,-29 -22,-53 -26,-53 -11,0 -10,6 11,111 30,151 34,194 17,208 -8,7 -23,11 -33,9 -18,-3 -22,-16 -43,-143 -6,-38 -15,-87 -21,-107 -9,-35 -11,-37 -34,-26 -35,16 -38,36 -30,164 8,129 2,170 -25,177 -31,8 -54,-16 -46,-46 3,-15 3,-76 0,-136 -6,-98 -9,-108 -25,-104 -28,8 -44,99 -41,241 3,138 -5,165 -46,160 l -26,-3 -1,-150 c 0,-82 4,-163 8,-180 5,-16 6,-27 2,-23 -3,3 -17,46 -31,95 -19,69 -23,101 -18,146 6,48 2,70 -21,132 -25,69 -29,75 -55,75 -40,0 -43,-20 -14,-97 21,-55 24,-77 19,-123 -4,-39 -1,-76 10,-119 16,-63 14,-84 -6,-64 -22,22 -62,162 -69,243 -7,87 -23,131 -58,163 -25,23 -62,14 -62,-13 0,-11 11,-36 25,-56 19,-27 25,-50 25,-88 0,-49 20,-160 36,-200 6,-16 4,-17 -13,-7 -12,6 -24,23 -28,38 -6,27 -74,168 -115,242 -30,53 -54,74 -79,66 -23,-7 -29,-43 -11,-61 20,-20 130,-230 130,-248 0,-16 -33,11 -48,40 -26,50 -134,174 -152,174 -19,0 -40,-19 -40,-36 0,-6 25,-40 56,-74 30,-34 53,-64 51,-66 -8,-8 -72,19 -95,40 -21,18 -23,28 -20,76 5,68 95,278 162,379 69,104 112,132 261,172 107,29 207,36 285,19 z m 7666,-16 c 200,-51 261,-113 375,-375 84,-195 83,-252 -7,-283 -26,-9 -49,-14 -51,-12 -2,1 21,31 52,65 30,34 55,68 55,75 0,18 -26,38 -43,34 -19,-4 -112,-112 -143,-165 -14,-22 -31,-44 -39,-47 -22,-8 29,116 77,187 10,15 27,40 38,56 21,31 18,56 -6,65 -24,9 -52,-11 -74,-52 -12,-20 -30,-52 -42,-71 -12,-19 -38,-74 -59,-124 -20,-49 -44,-94 -52,-98 -13,-8 -13,-4 -1,39 8,26 19,88 23,139 7,77 12,98 34,127 34,43 34,53 1,68 -25,11 -29,10 -56,-22 -34,-41 -48,-87 -48,-157 0,-56 -43,-209 -66,-232 -23,-25 -26,-6 -8,55 11,40 15,78 11,123 -4,55 -1,76 20,128 28,71 25,93 -12,93 -22,0 -30,-9 -52,-57 -22,-48 -26,-75 -28,-158 -2,-65 -9,-121 -21,-158 l -19,-58 v 168 168 l -27,3 c -41,5 -52,-31 -44,-142 11,-139 -16,-266 -55,-266 -10,0 -15,111 -11,221 2,59 0,67 -18,72 -10,3 -27,-1 -37,-8 -16,-12 -18,-29 -15,-164 l 3,-150 -30,-15 -29,-16 -17,73 c -9,39 -19,97 -22,127 -7,67 -18,90 -42,90 -44,0 -45,-44 -6,-228 8,-40 15,-80 15,-88 0,-25 -18,-15 -25,14 -10,42 -85,215 -100,231 -15,15 -50,7 -58,-14 -3,-7 10,-45 28,-84 31,-64 79,-202 73,-206 -2,0 -16,-9 -31,-19 -16,-10 -30,-16 -31,-14 -1,2 -10,28 -19,58 -54,184 -76,220 -113,189 -20,-16 -13,-55 27,-154 37,-94 38,-138 2,-171 l -28,-26 -16,69 c -19,83 -67,181 -92,189 -19,6 -47,-11 -47,-28 0,-6 16,-42 35,-82 23,-46 37,-92 41,-132 6,-56 5,-62 -17,-78 l -24,-17 -5,48 c -8,78 -67,158 -112,151 -34,-5 -33,-33 4,-79 28,-35 34,-51 38,-108 5,-61 3,-70 -17,-85 -22,-16 -22,-15 -42,30 -12,26 -21,49 -21,52 0,17 -47,52 -71,52 -38,0 -45,-27 -16,-59 27,-30 57,-100 57,-135 0,-20 -36,-66 -43,-55 -1,2 -7,13 -13,24 -17,31 -95,86 -117,83 -11,-2 -25,-11 -31,-21 -9,-15 -7,-22 13,-35 58,-41 81,-70 81,-104 0,-56 -17,-61 -61,-17 -27,27 -48,39 -68,39 -49,0 -47,-27 4,-76 25,-24 45,-50 45,-58 0,-8 -11,-28 -24,-43 l -24,-28 -25,23 c -30,29 -71,27 -75,-3 -2,-12 8,-31 23,-45 31,-29 31,-36 -1,-84 -36,-53 -46,-94 -33,-133 11,-33 34,-53 63,-53 9,0 16,7 16,15 0,8 -4,15 -9,15 -5,0 -13,9 -16,20 -19,61 255,392 434,523 112,83 362,250 366,245 5,-5 -112,-200 -192,-319 -154,-229 -368,-461 -496,-538 -165,-98 -274,-111 -416,-49 -179,79 -316,182 -370,279 -22,40 -15,35 80,-56 142,-136 180,-154 430,-202 28,-5 43,14 33,41 -7,18 -77,42 -162,55 -35,6 -84,22 -109,37 -60,35 -191,160 -265,252 -58,74 -65,94 -49,150 5,21 10,17 51,-45 25,-37 83,-107 130,-154 75,-76 98,-93 194,-139 113,-55 141,-58 141,-14 0,14 -28,34 -107,74 -122,63 -185,118 -273,240 -88,123 -108,165 -100,207 l 6,36 19,-31 c 11,-18 60,-72 109,-122 76,-76 103,-97 173,-129 46,-22 98,-51 116,-66 38,-32 66,-30 70,7 4,33 -34,64 -143,113 -67,31 -92,50 -171,132 -52,52 -103,115 -114,139 l -21,43 29,57 c 29,57 29,58 42,33 40,-76 147,-172 324,-292 93,-62 117,-66 124,-20 2,15 -17,33 -80,75 -216,143 -341,275 -324,342 6,23 112,156 124,156 4,0 25,-28 47,-61 44,-67 188,-211 278,-279 47,-35 62,-42 75,-33 33,20 25,47 -23,82 -71,51 -228,210 -267,271 -57,87 -56,88 13,149 33,29 61,52 63,50 1,-2 15,-26 30,-52 29,-50 168,-228 204,-260 25,-23 62,-14 62,14 0,11 -39,66 -86,122 -88,104 -144,189 -144,218 0,17 100,99 120,99 5,0 10,-6 10,-12 0,-20 56,-134 91,-184 25,-37 36,-45 57,-42 38,4 39,30 2,82 -40,59 -90,165 -90,192 0,13 17,33 46,53 25,18 46,32 48,30 1,-2 18,-50 37,-107 35,-105 54,-127 84,-102 20,17 19,24 -15,110 -16,41 -29,92 -30,112 0,32 5,41 38,63 l 37,25 8,-32 c 26,-98 63,-146 99,-127 22,12 23,32 3,63 -42,63 -35,134 16,170 34,23 39,20 39,-20 0,-44 35,-104 60,-104 9,0 24,7 31,16 11,14 10,21 -4,46 -20,35 -21,48 -6,98 8,27 21,42 46,54 44,21 43,21 43,-12 0,-39 41,-116 64,-121 42,-7 61,62 26,94 -15,14 -20,29 -18,54 2,30 9,39 38,53 35,16 35,16 44,-9 6,-19 14,-23 35,-21 21,2 27,9 29,36 4,42 44,62 73,36 22,-19 55,-11 64,16 4,11 16,22 28,25 84,20 110,23 173,24 47,1 105,-8 170,-25 z"
         id="path142" /><path
         d="m 2890,5943 c -8,-3 -28,-17 -43,-32 -87,-80 -112,-274 -52,-396 37,-77 107,-150 162,-171 100,-39 203,-14 251,59 48,72 42,227 -13,345 -29,62 -115,156 -167,183 -35,18 -105,24 -138,12 z m 98,-67 c 36,-18 115,-103 137,-147 20,-37 46,-129 38,-129 -3,0 -32,14 -64,31 -65,35 -139,101 -188,169 l -32,45 26,22 c 30,27 46,28 83,9 z m -82,-311 c 83,-37 181,-65 225,-65 44,0 45,0 23,-45 -21,-45 -70,-70 -124,-62 -53,7 -83,28 -132,93 -34,44 -64,104 -53,104 3,0 30,-11 61,-25 z"
         id="path144" /><path
         d="m 6320,5931 c -46,-25 -132,-116 -159,-169 -50,-98 -65,-255 -32,-327 47,-105 170,-141 282,-84 48,24 112,98 146,166 68,140 24,367 -80,416 -46,22 -113,21 -157,-2 z m 120,-56 c 17,-9 30,-20 30,-26 0,-18 -87,-124 -133,-162 -25,-20 -67,-48 -93,-61 -45,-23 -49,-24 -52,-7 -10,57 86,206 163,253 37,22 48,22 85,3 z m 70,-293 c 0,-15 -76,-126 -101,-149 -73,-67 -172,-54 -214,27 -20,39 -20,40 23,40 49,0 121,20 207,58 79,34 85,35 85,24 z"
         id="path146" /><path
         d="m 3935,2406 c -31,-31 -39,-93 -31,-225 8,-136 29,-232 64,-301 22,-44 41,-64 95,-100 79,-53 102,-82 169,-215 64,-126 169,-240 264,-286 l 62,-29 4,-55 c 7,-80 24,-95 112,-95 39,0 76,4 82,8 20,13 34,50 34,89 0,49 3,52 73,87 93,47 185,147 254,279 62,120 116,188 173,217 106,54 152,185 154,437 1,139 -1,154 -20,180 -25,34 -59,41 -85,17 -16,-15 -19,-31 -19,-126 0,-164 -35,-307 -86,-349 -13,-10 -59,-15 -183,-19 -154,-5 -169,-7 -211,-30 -36,-20 -48,-34 -63,-75 -10,-27 -23,-53 -30,-57 -9,-5 -87,-5 -144,1 -7,0 -17,18 -23,40 -26,98 -83,121 -295,121 -127,0 -145,2 -167,20 -52,40 -88,187 -88,355 0,81 -3,107 -16,119 -22,23 -51,20 -79,-8 z"
         id="path148" /></g></g></svg>
